<?xml version="1.0" standalone="no"?>
<!DOCTYPE svg PUBLIC "-//W3C//DTD SVG 20010904//EN"
 "http://www.w3.org/TR/2001/REC-SVG-20010904/DTD/svg10.dtd">
<svg version="1.0" xmlns="http://www.w3.org/2000/svg"
 width="500.000000pt" height="500.000000pt" viewBox="0 0 500.000000 500.000000"
 preserveAspectRatio="xMidYMid meet">

<g transform="translate(0.000000,500.000000) scale(0.100000,-0.100000)"
fill="#000000" stroke="none">
<path d="M1177 4003 c-155 -246 -150 -238 -137 -264 9 -15 19 -19 43 -17 29 3
39 15 112 130 44 70 83 128 88 128 4 0 7 -241 7 -536 0 -299 -4 -534 -9 -532
-4 2 -45 47 -90 101 -79 94 -97 106 -135 91 -14 -5 -16 -52 -16 -420 0 -403 0
-414 20 -424 17 -9 46 -3 62 13 1 1 5 150 8 331 l5 328 85 -101 c84 -101 110
-117 138 -89 9 9 12 164 12 636 0 392 4 622 10 620 5 -1 51 -59 102 -128 75
-101 98 -126 120 -128 22 -3 30 2 39 22 11 23 2 38 -116 203 -71 98 -137 190
-149 206 -13 18 -29 27 -47 27 -24 0 -40 -20 -152 -197z"/>
<path d="M1812 3788 c-8 -11 -19 -358 -13 -430 1 -22 46 -34 66 -18 11 9 15
33 15 87 l0 74 93 44 c179 86 367 120 572 103 422 -34 789 -316 940 -721 19
-50 43 -71 70 -61 45 18 35 76 -40 224 -142 283 -391 498 -690 598 -302 101
-626 75 -937 -76 -5 -2 -8 34 -8 80 0 52 -5 89 -12 96 -16 16 -43 15 -56 0z"/>
<path d="M2335 3409 c-289 -36 -543 -223 -671 -492 -57 -120 -77 -213 -77
-362 -1 -158 21 -254 88 -390 85 -171 218 -302 390 -385 125 -60 200 -79 340
-87 258 -13 492 81 672 270 167 176 243 389 230 640 -7 126 -29 213 -82 326
-126 265 -383 447 -681 481 -100 11 -111 11 -209 -1z m157 -186 c13 -12 18
-31 18 -75 0 -57 1 -58 28 -58 75 -1 170 -83 191 -165 16 -64 14 -125 -6 -147
-39 -43 -83 -3 -83 76 0 40 -6 60 -22 81 -18 23 -72 55 -93 55 -3 0 -4 -91 -3
-201 l3 -202 52 -20 c67 -25 131 -80 154 -131 14 -31 19 -65 19 -137 0 -85 -3
-102 -27 -150 -33 -64 -88 -106 -153 -117 l-45 -7 -5 -65 c-6 -76 -13 -90 -45
-90 -40 0 -55 25 -55 90 l0 59 -37 6 c-136 23 -206 94 -219 224 -6 55 -5 61
20 86 21 21 29 24 46 15 26 -14 40 -50 40 -103 0 -68 50 -117 120 -117 l30 0
0 193 0 193 -81 33 c-144 59 -188 119 -189 254 0 114 15 162 69 218 47 48 94
69 159 69 l32 0 0 65 c0 50 4 66 18 74 25 15 43 13 64 -6z"/>
<path d="M2323 2975 c-48 -21 -63 -59 -63 -163 0 -81 2 -91 25 -116 23 -25 81
-56 105 -56 6 0 10 61 10 175 0 175 0 175 -22 175 -13 -1 -37 -7 -55 -15z"/>
<path d="M2510 2306 l0 -176 26 0 c16 0 39 13 60 34 34 34 34 34 34 129 0 107
-9 126 -79 165 l-41 23 0 -175z"/>
<path d="M3616 2774 c-14 -13 -16 -65 -16 -415 l0 -400 -90 105 c-54 64 -98
106 -109 106 -46 0 -46 -1 -51 -596 l-5 -563 -87 138 c-48 76 -94 144 -103
151 -23 19 -65 -2 -65 -33 0 -28 273 -462 296 -471 8 -3 24 -2 34 4 10 5 75
102 145 214 97 157 126 212 123 233 -3 25 -7 28 -37 28 -33 0 -37 -5 -115
-130 l-81 -130 -3 243 c-1 133 -1 351 0 484 l3 242 85 -102 c84 -102 104 -115
140 -92 13 8 15 73 14 489 -1 503 -2 511 -45 511 -9 0 -25 -7 -33 -16z"/>
<path d="M3902 2758 c-17 -17 -17 -819 0 -836 15 -15 51 -15 66 0 17 17 17
819 0 836 -7 7 -21 12 -33 12 -12 0 -26 -5 -33 -12z"/>
<path d="M1261 2582 c-6 -11 -6 -56 -1 -120 49 -560 454 -997 1008 -1088 125
-21 332 -14 447 15 157 39 319 107 327 138 7 25 0 41 -24 54 -16 8 -38 2 -114
-31 -137 -60 -266 -90 -409 -97 -477 -21 -901 259 -1081 711 -38 96 -60 198
-70 321 -4 50 -11 96 -17 103 -14 18 -55 15 -66 -6z"/>
</g>
</svg>
