<?xml version="1.0" standalone="no"?>
<!DOCTYPE svg PUBLIC "-//W3C//DTD SVG 20010904//EN"
 "http://www.w3.org/TR/2001/REC-SVG-20010904/DTD/svg10.dtd">
<svg version="1.0" xmlns="http://www.w3.org/2000/svg"
 width="500.000000pt" height="500.000000pt" viewBox="0 0 500.000000 500.000000"
 preserveAspectRatio="xMidYMid meet">

<g transform="translate(0.000000,500.000000) scale(0.100000,-0.100000)"
fill="#000000" stroke="none">
<path d="M552 3355 c-48 -77 -57 -105 -32 -105 5 0 23 25 40 55 17 30 33 55
36 55 2 0 4 -100 4 -222 l-1 -223 -39 45 c-28 32 -42 42 -50 34 -14 -14 -9
-340 5 -337 6 2 11 59 13 138 1 74 5 135 7 135 3 0 21 -18 41 -40 20 -22 40
-40 45 -40 5 0 9 116 9 260 0 143 3 260 8 260 4 0 24 -25 45 -55 21 -30 42
-55 47 -55 22 0 16 21 -25 80 -54 77 -75 100 -89 100 -6 0 -35 -39 -64 -85z"/>
<path d="M814 3267 c-9 -24 1 -172 11 -170 6 1 12 17 15 34 9 56 103 91 240
91 90 0 169 -22 240 -67 56 -35 137 -130 167 -196 15 -32 30 -59 34 -59 38 0
-21 127 -96 208 -63 68 -144 115 -236 137 -105 24 -178 18 -326 -30 -21 -7
-23 -4 -23 29 0 35 -16 49 -26 23z"/>
<path d="M1017 3119 c-190 -31 -323 -219 -287 -403 24 -122 108 -225 218 -266
79 -30 205 -26 277 10 118 58 185 159 193 290 7 129 -42 240 -140 310 -67 48
-177 74 -261 59z m81 -92 c2 -18 11 -29 27 -33 37 -9 65 -46 68 -89 1 -31 -2
-40 -16 -43 -17 -4 -21 2 -31 49 -3 15 -13 29 -21 33 -13 4 -15 -7 -15 -75 0
-74 1 -80 24 -89 41 -15 66 -57 66 -112 0 -41 -5 -54 -29 -79 -16 -16 -37 -29
-45 -29 -10 0 -16 -9 -16 -22 0 -32 -15 -52 -34 -45 -10 4 -16 18 -16 37 0 25
-4 30 -24 30 -34 0 -76 53 -76 96 0 27 4 34 20 34 15 0 20 -7 20 -25 0 -25 31
-65 50 -65 6 0 10 33 10 78 l0 79 -41 18 c-53 24 -69 49 -69 106 0 56 33 104
80 114 23 5 30 12 30 29 0 45 33 47 38 3z"/>
<path d="M1016 2937 c-26 -19 -19 -95 12 -115 l22 -14 0 71 c0 73 -4 80 -34
58z"/>
<path d="M1100 2676 c0 -49 3 -66 14 -66 42 0 48 91 9 118 l-23 14 0 -66z"/>
<path d="M1550 2706 c0 -94 -4 -166 -9 -166 -5 0 -24 18 -41 40 -17 22 -36 38
-41 34 -5 -3 -9 -107 -9 -235 0 -126 -3 -229 -7 -229 -5 0 -24 25 -43 55 -31
49 -60 71 -60 46 0 -18 112 -191 124 -191 11 0 116 163 116 181 0 24 -31 4
-54 -35 -15 -25 -31 -48 -36 -51 -6 -4 -10 63 -10 189 0 108 3 196 8 196 4 -1
21 -19 37 -40 53 -69 56 -62 53 162 -2 150 -6 202 -15 206 -10 3 -13 -34 -13
-162z"/>
<path d="M1670 2691 c0 -147 2 -171 15 -171 13 0 15 23 13 167 -2 122 -6 167
-15 171 -10 3 -13 -35 -13 -167z"/>
<path d="M1990 2765 c0 -57 4 -95 10 -95 6 0 10 18 10 40 l0 40 85 0 c69 0 85
3 85 15 0 12 -16 15 -86 15 l-85 0 3 28 3 27 93 3 c128 4 117 22 -13 22 l-105
0 0 -95z"/>
<path d="M2260 2765 c0 -57 4 -95 10 -95 6 0 10 38 10 95 0 57 -4 95 -10 95
-6 0 -10 -38 -10 -95z"/>
<path d="M2340 2765 c0 -77 3 -95 15 -95 11 0 15 17 17 74 l3 75 92 -75 c51
-41 95 -74 98 -74 3 0 5 43 5 95 0 113 -18 129 -22 20 l-3 -75 -92 75 c-50 41
-96 75 -102 75 -7 0 -11 -34 -11 -95z"/>
<path d="M2683 2767 c-34 -52 -56 -94 -50 -96 6 -2 17 6 25 18 13 19 24 21 94
21 71 0 82 -3 98 -22 10 -13 21 -20 25 -16 7 7 -112 188 -123 188 -4 0 -35
-42 -69 -93z m101 16 l26 -38 -51 -3 c-28 -2 -53 -1 -56 1 -5 6 39 77 48 77 3
0 18 -17 33 -37z"/>
<path d="M2930 2765 c0 -57 4 -95 10 -95 6 0 10 30 10 70 0 42 4 70 10 70 6 0
50 -31 98 -70 48 -38 90 -70 94 -70 5 0 8 43 8 95 0 57 -4 95 -10 95 -6 0 -10
-29 -10 -68 0 -38 -3 -71 -6 -75 -4 -3 -47 27 -97 68 -50 41 -95 75 -99 75 -4
0 -8 -43 -8 -95z"/>
<path d="M3237 2842 c-12 -13 -17 -37 -17 -79 0 -82 13 -93 112 -93 62 0 78 3
93 20 24 26 13 37 -17 16 -26 -18 -118 -22 -149 -6 -15 9 -19 22 -19 63 0 29
5 58 12 65 19 19 138 15 160 -5 25 -22 36 -8 13 17 -26 28 -163 30 -188 2z"/>
<path d="M3500 2765 l0 -95 105 0 c130 0 141 18 13 22 l-93 3 -3 28 -3 27 85
0 c70 0 86 3 86 15 0 12 -16 15 -86 15 l-85 0 3 28 3 27 93 3 c128 4 117 22
-13 22 l-105 0 0 -95z"/>
<path d="M3889 2769 c-33 -50 -58 -94 -54 -97 4 -4 15 3 25 16 16 19 27 22 99
22 70 0 82 -3 91 -20 6 -11 17 -20 25 -20 10 0 -7 33 -47 95 -35 52 -66 95
-70 95 -4 0 -35 -41 -69 -91z m99 15 c13 -20 21 -38 19 -41 -3 -2 -28 -3 -56
-1 l-51 3 25 38 c14 20 29 37 33 37 4 0 17 -16 30 -36z"/>
<path d="M4135 2765 c0 -69 3 -95 13 -95 7 0 12 14 12 35 l0 35 88 0 c99 0
112 7 112 60 0 54 -12 60 -124 60 l-101 0 0 -95z m200 35 l0 -35 -87 -3 -88
-3 0 41 0 41 88 -3 87 -3 0 -35z"/>
<path d="M4420 2765 c0 -57 4 -95 10 -95 6 0 10 16 10 35 l0 35 89 0 c98 0
121 11 121 56 0 58 -11 64 -125 64 l-105 0 0 -95z m206 50 c11 -45 -10 -56
-100 -53 -76 3 -81 4 -84 26 -7 47 2 52 92 52 83 0 86 -1 92 -25z"/>
<path d="M590 2760 c0 -53 22 -134 54 -200 61 -127 189 -226 335 -260 94 -22
247 0 320 47 37 24 11 36 -35 17 -106 -45 -199 -54 -293 -29 -185 49 -318 195
-344 379 -7 50 -15 76 -24 76 -8 0 -13 -12 -13 -30z"/>
</g>
</svg>
